@startuml

[*] --> 壁判定用ループ
壁判定用ループ --> 壁判定 : 何かに触れた

state 壁判定{
[*] --> 接触対象の判定
接触対象の判定 --> 接触状態を接触中に変更 : 壁である
接触状態を接触中に変更 : do / 状態を壁接触状態に変更する
接触対象の判定 --> 壁判定用ループ : 壁でない
接触状態を接触中に変更 --> 壁判定用ループ
}

[*] --> 移動用ループ
移動用ループ --> 高速移動処理

state 高速移動処理 {
[*] --> 壁接触状態の判定
壁接触状態の判定 --> 入力を受け付ける : 壁非接触状態
壁接触状態の判定 --> 入力を受け付けない : 壁接触状態

入力を受け付ける --> 高速移動 : キー入力されている
高速移動 : do / 状態を高速移動中にする
高速移動 --> 移動用ループ
入力を受け付ける --> 移動用ループ : キー入力されていない
入力を受け付けない --> 移動用ループ
入力を受け付けない : do / 状態を非高速移動中に変更する
}

@enduml